<?xml version="1.0" encoding="UTF-8"?>
<svg width="606px" height="281px" viewBox="0 0 606 281" version="1.1" xmlns="http://www.w3.org/2000/svg" xmlns:xlink="http://www.w3.org/1999/xlink" style="background: #FFFFFF;">
    <!-- Generator: Sketch 43.2 (39069) - http://www.bohemiancoding.com/sketch -->
    <title>mobile</title>
    <desc>Created with Sketch.</desc>
    <defs></defs>
    <g id="Page-1" stroke="none" stroke-width="1" fill="none" fill-rule="evenodd">
        <circle id="Oval" stroke="#979797" fill="#7ED321" cx="163.5" cy="70.5" r="10.5"></circle>
        <circle id="Oval" stroke="#979797" fill="#417505" cx="238.5" cy="149.5" r="10.5"></circle>
        <circle id="Oval" stroke="#979797" fill="#8B572A" cx="184.5" cy="220.5" r="10.5"></circle>
        <circle id="Oval" stroke="#979797" fill="#8B572A" cx="280.5" cy="220.5" r="10.5"></circle>
        <circle id="Oval" stroke="#979797" fill="#8B572A" cx="450.5" cy="220.5" r="10.5"></circle>
        <circle id="Oval" stroke="#979797" fill="#417505" cx="332.5" cy="149.5" r="10.5"></circle>
        <circle id="Oval" stroke="#979797" fill="#7ED321" cx="259.5" cy="70.5" r="10.5"></circle>
        <circle id="Oval" stroke="#979797" fill="#7ED321" cx="372.5" cy="70.5" r="10.5"></circle>
        <circle id="Oval" stroke="#979797" fill="#7ED321" cx="561.5" cy="70.5" r="10.5"></circle>
        <text id="main" font-family="RobotoSlab-Regular, Roboto Slab" font-size="20" font-weight="normal" fill="#706F6F">
            <tspan x="46" y="76">main</tspan>
        </text>
        <text id="feature-1" font-family="RobotoSlab-Regular, Roboto Slab" font-size="20" font-weight="normal" fill="#706F6F">
            <tspan x="46" y="155">feature 1</tspan>
        </text>
        <text id="feature-2" font-family="RobotoSlab-Regular, Roboto Slab" font-size="20" font-weight="normal" fill="#706F6F">
            <tspan x="46" y="226">feature 2</tspan>
        </text>
        <path d="M174.5,71.5 L248.5,71.5" id="Line" stroke="#979797" stroke-linecap="square"></path>
        <path id="Line-decoration-1" d="M248.5,71.5 L237.7,68.5 L237.7,74.5 L248.5,71.5 Z" stroke="#979797" stroke-linecap="square"></path>
        <path d="M383.5,71.5 L551.5,71.5" id="Line" stroke="#979797" stroke-linecap="square"></path>
        <path id="Line-decoration-1" d="M551.5,71.5 L540.7,68.5 L540.7,74.5 L551.5,71.5 Z" stroke="#979797" stroke-linecap="square"></path>
        <path d="M270.5,71.5 L361.521975,71.5" id="Line" stroke="#979797" stroke-linecap="square"></path>
        <path id="Line-decoration-1" d="M361.521975,71.5 L350.721975,68.5 L350.721975,74.5 L361.521975,71.5 Z" stroke="#979797" stroke-linecap="square"></path>
        <path d="M174.5,71.5 L248.5,71.5" id="Line" stroke="#979797" stroke-linecap="square"></path>
        <path id="Line-decoration-1" d="M248.5,71.5 L237.7,68.5 L237.7,74.5 L248.5,71.5 Z" stroke="#979797" stroke-linecap="square"></path>
        <path d="M249.5,148.5 L323.5,148.5" id="Line" stroke="#979797" stroke-linecap="square"></path>
        <path id="Line-decoration-1" d="M323.5,148.5 L312.7,145.5 L312.7,151.5 L323.5,148.5 Z" stroke="#979797" stroke-linecap="square"></path>
        <path d="M195.5,220.5 L269.5,220.5" id="Line" stroke="#979797" stroke-linecap="square"></path>
        <path id="Line-decoration-1" d="M269.5,220.5 L258.7,217.5 L258.7,223.5 L269.5,220.5 Z" stroke="#979797" stroke-linecap="square"></path>
        <path d="M293.5,220.5 L439.513698,220.5" id="Line" stroke="#979797" stroke-linecap="square"></path>
        <path id="Line-decoration-1" d="M439.513698,220.5 L428.713698,217.5 L428.713698,223.5 L439.513698,220.5 Z" stroke="#979797" stroke-linecap="square"></path>
        <path d="M336.5,140.5 L367.5,82.5" id="Line" stroke="#979797" stroke-linecap="square"></path>
        <path id="Line-decoration-1" d="M367.5,82.5 L359.76333,90.6107302 L365.05492,93.4389938 L367.5,82.5 Z" stroke="#979797" stroke-linecap="square"></path>
        <path d="M169.5,79.5 L230.5,143.5" id="Line" stroke="#979797" stroke-linecap="square"></path>
        <path id="Line-decoration-1" d="M230.5,143.5 L225.220281,133.612403 L220.877068,137.752029 L230.5,143.5 Z" stroke="#979797" stroke-linecap="square"></path>
        <path d="M164.5,80.5 L183.5,211.5" id="Line" stroke="#979797" stroke-linecap="square"></path>
        <path id="Line-decoration-1" d="M183.5,211.5 L184.918743,200.381225 L178.980873,201.242442 L183.5,211.5 Z" stroke="#979797" stroke-linecap="square"></path>
        <g id="Group" transform="translate(237.000000, 31.000000)">
            <rect id="Rectangle" fill="#ECECEC" x="0" y="0" width="46" height="18" rx="8"></rect>
            <text id="v1.0.0" font-family="RobotoSlab-Regular, Roboto Slab" font-size="13" font-weight="normal" fill="#000000">
                <tspan x="6" y="14">v1.0.0</tspan>
            </text>
        </g>
        <g id="Group" transform="translate(352.000000, 31.000000)">
            <rect id="Rectangle" fill="#ECECEC" x="0" y="0" width="46" height="18" rx="8"></rect>
            <text id="v1.1.0" font-family="RobotoSlab-Regular, Roboto Slab" font-size="13" font-weight="normal" fill="#000000">
                <tspan x="6" y="14">v1.1.0</tspan>
            </text>
        </g>
    </g>
</svg>