<?xml version="1.0" encoding="UTF-8"?>
<svg width="801px" height="396px" viewBox="0 0 801 396" version="1.1" xmlns="http://www.w3.org/2000/svg" xmlns:xlink="http://www.w3.org/1999/xlink" style="background: #FFFFFF;">
    <!-- Generator: Sketch 43.2 (39069) - http://www.bohemiancoding.com/sketch -->
    <title>web</title>
    <desc>Created with Sketch.</desc>
    <defs></defs>
    <g id="Page-1" stroke="none" stroke-width="1" fill="none" fill-rule="evenodd">
        <text id="feature-1" font-family="RobotoSlab-Regular, Roboto Slab" font-size="20" font-weight="normal" fill="#706F6F">
            <tspan x="49" y="269">feature 1</tspan>
        </text>
        <text id="feature-2" font-family="RobotoSlab-Regular, Roboto Slab" font-size="20" font-weight="normal" fill="#706F6F">
            <tspan x="49" y="325">feature 2</tspan>
        </text>
        <circle id="Oval" stroke="#979797" fill="#7ED321" cx="343.5" cy="56.5" r="10.5"></circle>
        <circle id="Oval" stroke="#979797" fill="#07BDBC" cx="256.5" cy="138.5" r="10.5"></circle>
        <circle id="Oval" stroke="#979797" fill="#2A578B" cx="184.5" cy="206.5" r="10.5"></circle>
        <circle id="Oval" stroke="#979797" fill="#2A578B" cx="246.5" cy="206.5" r="10.5"></circle>
        <circle id="Oval" stroke="#979797" fill="#2A578B" cx="311.5" cy="206.5" r="10.5"></circle>
        <circle id="Oval" stroke="#979797" fill="#960373" cx="289.5" cy="266.5" r="10.5"></circle>
        <circle id="Oval" stroke="#979797" fill="#960373" cx="332.5" cy="265.5" r="10.5"></circle>
        <circle id="Oval" stroke="#979797" fill="#2A578B" cx="375.5" cy="206.5" r="10.5"></circle>
        <circle id="Oval" stroke="#979797" fill="#2A578B" cx="616.5" cy="205.5" r="10.5"></circle>
        <circle id="Oval" stroke="#979797" fill="#07BDBC" cx="408.5" cy="138.5" r="10.5"></circle>
        <circle id="Oval" stroke="#979797" fill="#07BDBC" cx="548.5" cy="137.5" r="10.5"></circle>
        <circle id="Oval" stroke="#979797" fill="#07BDBC" cx="664.5" cy="137.5" r="10.5"></circle>
        <circle id="Oval" stroke="#979797" fill="#7ED321" cx="439.5" cy="56.5" r="10.5"></circle>
        <circle id="Oval" stroke="#979797" fill="#7ED321" cx="552.5" cy="56.5" r="10.5"></circle>
        <circle id="Oval" stroke="#979797" fill="#CE21D3" cx="490.5" cy="93.5" r="10.5"></circle>
        <circle id="Oval" stroke="#979797" fill="#7ED321" cx="741.5" cy="56.5" r="10.5"></circle>
        <text id="main" font-family="RobotoSlab-Regular, Roboto Slab" font-size="20" font-weight="normal" fill="#706F6F">
            <tspan x="46" y="62">main</tspan>
        </text>
        <text id="staging" font-family="RobotoSlab-Regular, Roboto Slab" font-size="20" font-weight="normal" fill="#706F6F">
            <tspan x="46" y="141">staging</tspan>
        </text>
        <text id="hot-fix" font-family="RobotoSlab-Regular, Roboto Slab" font-size="20" font-weight="normal" fill="#706F6F">
            <tspan x="46" y="104">hot fix</tspan>
        </text>
        <text id="develop" font-family="RobotoSlab-Regular, Roboto Slab" font-size="20" font-weight="normal" fill="#706F6F">
            <tspan x="46" y="212">develop</tspan>
        </text>
        <path d="M563.5,57.5 L731.5,57.5" id="Line" stroke="#979797" stroke-linecap="square"></path>
        <path id="Line-decoration-1" d="M731.5,57.5 L720.7,54.5 L720.7,60.5 L731.5,57.5 Z" stroke="#979797" stroke-linecap="square"></path>
        <path d="M450.5,57.5 L541.521975,57.5" id="Line" stroke="#979797" stroke-linecap="square"></path>
        <path id="Line-decoration-1" d="M541.521975,57.5 L530.721975,54.5 L530.721975,60.5 L541.521975,57.5 Z" stroke="#979797" stroke-linecap="square"></path>
        <path d="M354.5,57.5 L428.5,57.5" id="Line" stroke="#979797" stroke-linecap="square"></path>
        <path id="Line-decoration-1" d="M428.5,57.5 L417.7,54.5 L417.7,60.5 L428.5,57.5 Z" stroke="#979797" stroke-linecap="square"></path>
        <path d="M195.5,206.5 L235.5,206.5" id="Line" stroke="#979797" stroke-linecap="square"></path>
        <path id="Line-decoration-1" d="M235.5,206.5 L224.7,203.5 L224.7,209.5 L235.5,206.5 Z" stroke="#979797" stroke-linecap="square"></path>
        <path d="M260.488828,206.5 L297.5,206.5" id="Line" stroke="#979797" stroke-linecap="square"></path>
        <path id="Line-decoration-1" d="M297.5,206.5 L286.7,203.5 L286.7,209.5 L297.5,206.5 Z" stroke="#979797" stroke-linecap="square"></path>
        <path d="M301.488828,265.5 L321.5,265.5" id="Line" stroke="#979797" stroke-linecap="square"></path>
        <path id="Line-decoration-1" d="M321.5,265.5 L310.7,262.5 L310.7,268.5 L321.5,265.5 Z" stroke="#979797" stroke-linecap="square"></path>
        <circle id="Oval" stroke="#979797" fill="#960373" cx="289.5" cy="319.5" r="10.5"></circle>
        <circle id="Oval" stroke="#979797" fill="#960373" cx="413.5" cy="318.5" r="10.5"></circle>
        <circle id="Oval" stroke="#979797" fill="#960373" cx="457.5" cy="318.5" r="10.5"></circle>
        <path d="M301.488828,318.5 L401.5,318.5" id="Line" stroke="#979797" stroke-linecap="square"></path>
        <path id="Line-decoration-1" d="M401.5,318.5 L390.7,315.5 L390.7,321.5 L401.5,318.5 Z" stroke="#979797" stroke-linecap="square"></path>
        <path d="M322.488828,206.5 L362.5,206.5" id="Line" stroke="#979797" stroke-linecap="square"></path>
        <path id="Line-decoration-1" d="M362.5,206.5 L351.7,203.5 L351.7,209.5 L362.5,206.5 Z" stroke="#979797" stroke-linecap="square"></path>
        <path d="M420.488828,137.5 L533.539812,137.5" id="Line" stroke="#979797" stroke-linecap="square"></path>
        <path id="Line-decoration-1" d="M533.539812,137.5 L522.739812,134.5 L522.739812,140.5 L533.539812,137.5 Z" stroke="#979797" stroke-linecap="square"></path>
        <path d="M559.488828,137.5 L650.5,137.5" id="Line" stroke="#979797" stroke-linecap="square"></path>
        <path id="Line-decoration-1" d="M650.5,137.5 L639.7,134.5 L639.7,140.5 L650.5,137.5 Z" stroke="#979797" stroke-linecap="square"></path>
        <path d="M673.5,129.5 L735.5,66.5" id="Line" stroke="#979797" stroke-linecap="square"></path>
        <path id="Line-decoration-1" d="M735.5,66.5 L725.786361,72.0933185 L730.062806,76.3018834 L735.5,66.5 Z" stroke="#979797" stroke-linecap="square"></path>
        <path d="M625.5,197.5 L659.5,149.5" id="Line" stroke="#979797" stroke-linecap="square"></path>
        <path id="Line-decoration-1" d="M659.5,149.5 L650.809339,156.579012 L655.705486,160.047116 L659.5,149.5 Z" stroke="#979797" stroke-linecap="square"></path>
        <path d="M386.488828,206.5 L605.557067,206.5" id="Line" stroke="#979797" stroke-linecap="square"></path>
        <path id="Line-decoration-1" d="M605.557067,206.5 L594.757067,203.5 L594.757067,209.5 L605.557067,206.5 Z" stroke="#979797" stroke-linecap="square"></path>
        <path d="M424.488828,318.5 L446.5,318.5" id="Line" stroke="#979797" stroke-linecap="square"></path>
        <path id="Line-decoration-1" d="M446.5,318.5 L435.7,315.5 L435.7,321.5 L446.5,318.5 Z" stroke="#979797" stroke-linecap="square"></path>
        <path d="M270.488828,138.5 L397.5,138.5" id="Line" stroke="#979797" stroke-linecap="square"></path>
        <path id="Line-decoration-1" d="M397.5,138.5 L386.7,135.5 L386.7,141.5 L397.5,138.5 Z" stroke="#979797" stroke-linecap="square"></path>
        <path d="M266.5,130.5 L335.5,63.5" id="Line" stroke="#979797" stroke-linecap="square"></path>
        <path id="Line-decoration-1" d="M335.5,63.5 L325.661881,68.871351 L329.841678,73.1759181 L335.5,63.5 Z" stroke="#979797" stroke-linecap="square"></path>
        <path d="M382.5,195.5 L402.5,146.5" id="Line" stroke="#979797" stroke-linecap="square"></path>
        <path id="Line-decoration-1" d="M402.5,146.5 L395.641169,155.365464 L401.196255,157.632846 L402.5,146.5 Z" stroke="#979797" stroke-linecap="square"></path>
        <path d="M342.5,258.5 L370.5,218.5" id="Line" stroke="#979797" stroke-linecap="square"></path>
        <path id="Line-decoration-1" d="M370.5,218.5 L361.848911,225.627318 L366.764302,229.068092 L370.5,218.5 Z" stroke="#979797" stroke-linecap="square"></path>
        <path d="M448.5,66.5 L480.5,90.5" id="Line" stroke="#979797" stroke-linecap="square"></path>
        <path id="Line-decoration-1" d="M480.5,90.5 L473.66,81.62 L470.06,86.42 L480.5,90.5 Z" stroke="#979797" stroke-linecap="square"></path>
        <path d="M500.5,101.5 L537.5,128.5" id="Line" stroke="#979797" stroke-linecap="square"></path>
        <path id="Line-decoration-1" d="M537.5,128.5 L530.544265,119.710361 L527.007451,124.557107 L537.5,128.5 Z" stroke="#979797" stroke-linecap="square"></path>
        <path d="M557.5,147.5 L607.5,196.5" id="Line" stroke="#979797" stroke-linecap="square"></path>
        <path id="Line-decoration-1" d="M607.5,196.5 L601.886287,186.798133 L597.686716,191.08341 L607.5,196.5 Z" stroke="#979797" stroke-linecap="square"></path>
        <path d="M501.5,88.5 L545.5,64.5" id="Line" stroke="#979797" stroke-linecap="square"></path>
        <path id="Line-decoration-1" d="M545.5,64.5 L534.582171,67.0379163 L537.455284,72.3052897 L545.5,64.5 Z" stroke="#979797" stroke-linecap="square"></path>
        <path d="M413.5,128.5 L434.5,70.5" id="Line" stroke="#979797" stroke-linecap="square"></path>
        <path id="Line-decoration-1" d="M434.5,70.5 L428.002439,79.6335479 L433.644034,81.6761944 L434.5,70.5 Z" stroke="#979797" stroke-linecap="square"></path>
        <path d="M468.5,313.5 L607.5,214.5" id="Line" stroke="#979797" stroke-linecap="square"></path>
        <path id="Line-decoration-1" d="M607.5,214.5 L596.962747,218.32182 L600.443521,223.208967 L607.5,214.5 Z" stroke="#979797" stroke-linecap="square"></path>
        <path d="M248.5,195.5 L255.5,148.5" id="Line" stroke="#979797" stroke-linecap="square"></path>
        <path id="Line-decoration-1" d="M255.5,148.5 L250.941767,158.74024 L256.876308,159.624108 L255.5,148.5 Z" stroke="#979797" stroke-linecap="square"></path>
        <path d="M253.5,216.5 L279.5,258.5" id="Line" stroke="#979797" stroke-linecap="square"></path>
        <path id="Line-decoration-1" d="M279.5,258.5 L276.366166,247.738073 L271.264575,250.8962 L279.5,258.5 Z" stroke="#979797" stroke-linecap="square"></path>
        <path d="M250.5,218.5 L283.5,310.5" id="Line" stroke="#979797" stroke-linecap="square"></path>
        <path id="Line-decoration-1" d="M283.5,310.5 L282.677405,299.3213 L277.029736,301.347094 L283.5,310.5 Z" stroke="#979797" stroke-linecap="square"></path>
    </g>
</svg>